<?xml version="1.0" standalone="no"?>
<!DOCTYPE svg PUBLIC "-//W3C//DTD SVG 20010904//EN"
 "http://www.w3.org/TR/2001/REC-SVG-20010904/DTD/svg10.dtd">
<svg version="1.0" xmlns="http://www.w3.org/2000/svg"
 width="400.000000pt" height="400.000000pt" viewBox="0 0 400.000000 400.000000"
 preserveAspectRatio="xMidYMid meet">

<g transform="translate(0.000000,400.000000) scale(0.100000,-0.100000)"
fill="#000000" stroke="none">
<path d="M0 2000 l0 -2000 2000 0 2000 0 0 2000 0 2000 -2000 0 -2000 0 0
-2000z m2232 1236 c-9 -11 -65 -68 -123 -127 l-107 -107 -123 124 -124 124
125 125 125 125 122 -122 c119 -118 122 -123 105 -142z m-247 -406 l320 -320
-65 -67 c-36 -37 -67 -70 -68 -73 -2 -3 -118 112 -258 255 l-254 260 -100
-100 c-55 -55 -100 -102 -100 -105 0 -3 36 -43 80 -90 l81 -84 -68 -68 -68
-68 -152 152 -153 153 237 237 c131 131 240 238 243 238 3 0 149 -144 325
-320z m598 82 l237 -237 -324 -324 -325 -325 -67 68 -67 68 135 136 c264 266
368 374 368 381 0 3 -45 51 -101 106 l-101 100 -77 -82 c-42 -46 -81 -83 -87
-83 -5 0 -39 29 -74 65 l-65 65 150 150 c82 83 152 150 155 150 3 0 112 -107
243 -238z m-855 -649 l-238 -238 -65 65 c-36 35 -65 68 -65 73 0 4 104 114
232 243 l232 235 71 -71 70 -70 -237 -237z m-168 -508 c-35 -36 -67 -65 -71
-65 -4 0 -120 114 -258 253 l-250 252 -103 -102 -103 -103 102 -102 103 -103
83 83 84 83 66 -68 66 -68 -152 -153 -152 -153 -238 241 -238 241 238 240 237
240 325 -326 326 -325 -65 -65z m1703 -5 l-238 -241 -325 325 -325 326 65 65
c35 36 68 65 72 65 4 0 120 -114 257 -252 l250 -253 103 103 103 102 -102 102
-103 103 -83 -83 -82 -82 -68 67 -67 68 153 153 152 153 238 -240 238 -240
-238 -241z m-1193 305 l235 -235 -68 -67 -67 -68 -237 237 -238 238 65 65 c35
36 67 65 70 65 3 0 111 -106 240 -235z m-171 -172 l62 -67 -135 -135 c-207
-209 -366 -373 -366 -380 0 -4 45 -51 100 -106 l101 -100 78 83 c43 45 82 82
87 82 5 0 39 -29 74 -65 l65 -65 -153 -153 -152 -152 -240 240 -240 240 322
322 c178 178 326 323 329 323 4 0 34 -30 68 -67z m680 3 c58 -58 62 -66 50
-83 -8 -10 -113 -119 -234 -241 l-219 -223 -70 71 -71 70 235 235 c129 129
237 235 240 235 3 0 34 -29 69 -64z m-490 -533 l251 -257 100 99 c55 55 100
102 100 106 0 3 -36 44 -80 90 l-79 84 67 68 67 67 152 -152 153 -153 -240
-240 -240 -240 -322 322 -322 322 64 69 c36 38 68 70 71 71 3 0 119 -115 258
-256z m42 -485 l120 -122 -123 -123 -123 -123 -125 125 -125 125 120 120 c66
66 123 120 127 120 5 0 62 -55 129 -122z"/>
</g>
</svg>
